<svg width="12" height="12" viewBox="0 0 12 12" fill="none" xmlns="http://www.w3.org/2000/svg">
<path d="M6.15185 2.46079C5.39836 2.21471 3.44501 2.46079 2.95286 2.95294L3.93716 4.42939C3.44501 5.16762 2.95286 5.90585 2.95286 7.38231C2.95286 7.38231 1.72248 7.38231 0.984253 7.87446L3.93716 10.8274C4.42932 10.0891 4.42932 9.59699 4.42932 8.85876C5.41362 8.85876 6.89008 8.61269 7.87438 7.87446L8.36456 8.85975C9.40104 7.82328 9.59691 6.398 9.59691 6.398C10.815 4.83198 10.5089 2.60843 10.3351 1.96864C8.61261 1.64529 7.1957 1.76488 6.15185 2.46079ZM6.15185 2.46079C6.06966 3.11732 6.54557 4.57704 8.12046 5.16762" stroke="#33629B" stroke-width="0.733187" stroke-linecap="square"/>
<path d="M8.61268 3.44217L8.61108 3.44377L8.61268 3.44537L8.61428 3.44377L8.61268 3.44217Z" stroke="#33629B" stroke-width="0.733187" stroke-linecap="square"/>
</svg>
