<svg width="12" height="12" viewBox="0 0 12 12" fill="none" xmlns="http://www.w3.org/2000/svg">
<path d="M7.73165 1.96862C8.14014 1.96862 8.52894 2.07689 8.85868 2.29344C9.41973 2.65763 9.76424 3.21376 9.84298 3.85848C9.87113 4.17077 9.83065 4.48545 9.72438 4.78045C9.61812 5.07545 9.44863 5.34365 9.22779 5.56625C8.88329 5.90583 8.44527 6.12238 7.96296 6.1716C7.02295 6.27003 6.19614 6.64406 5.58095 7.2691C5.50652 7.34155 5.40675 7.38209 5.30288 7.38209C5.19901 7.38209 5.09924 7.34155 5.02482 7.2691L4.53758 6.78186C4.50308 6.74779 4.47573 6.70716 4.45713 6.66237C4.43854 6.61757 4.42908 6.56952 4.42931 6.52102C4.42931 6.39799 4.48345 6.28971 4.5868 6.18636C5.1823 5.58594 5.5465 4.78865 5.63508 3.87325C5.69906 3.21868 6.04849 2.65763 6.61939 2.28852C6.94421 2.07689 7.32809 1.96862 7.73165 1.96862ZM7.73165 0.984314C7.15583 0.984314 6.58002 1.1418 6.08294 1.4617C5.21675 2.01783 4.73937 2.88402 4.6557 3.77974C4.59172 4.42938 4.34565 5.03472 3.89287 5.4875L3.8781 5.50227C3.3072 6.07317 3.3072 6.94427 3.84365 7.4758L4.33088 7.96303C4.60156 8.23371 4.95099 8.36659 5.30042 8.36659C5.64985 8.36659 6.0042 8.23371 6.27488 7.96303C6.75227 7.48564 7.38222 7.2248 8.06631 7.15098C8.74056 7.07716 9.40005 6.78186 9.92173 6.2651C10.249 5.93826 10.4987 5.54202 10.6522 5.10568C10.8057 4.66935 10.8591 4.20408 10.8085 3.74431C10.758 3.28453 10.6047 2.842 10.3601 2.44945C10.1154 2.0569 9.78563 1.72438 9.39513 1.47647C8.89805 1.14672 8.31731 0.984314 7.73165 0.984314ZM3.08081 9.77415C3.2137 10.0498 3.1694 10.3844 2.93809 10.6108C2.83791 10.7125 2.71023 10.7827 2.5707 10.8129C2.43118 10.8431 2.28588 10.8319 2.15264 10.7807C2.01939 10.7295 1.90398 10.6405 1.82058 10.5246C1.73717 10.4088 1.68939 10.2711 1.6831 10.1285C1.54049 10.1222 1.40282 10.0744 1.28697 9.99102C1.17112 9.90762 1.08213 9.79221 1.03093 9.65897C0.979717 9.52572 0.968512 9.38042 0.998687 9.2409C1.02886 9.10137 1.0991 8.97369 1.20079 8.87351C1.42718 8.64712 1.76677 8.59791 2.03745 8.73079L3.25799 7.53486C3.32689 7.62837 3.40564 7.73664 3.49422 7.82523L3.98145 8.31246C4.08481 8.41089 4.18324 8.49455 4.31119 8.56838L3.08081 9.77415Z" fill="#AE1D1D"/>
</svg>
