<svg width="12" height="12" viewBox="0 0 12 12" fill="none" xmlns="http://www.w3.org/2000/svg">
<path d="M10.4976 1.24516C10.3155 1.17626 10.1088 1.22055 9.97099 1.35343C9.93162 1.38788 9.05559 2.22454 7.58405 1.48631C6.57514 0.979396 4.828 0.679184 3.21374 1.48631C1.10241 2.54936 0.359262 5.22175 1.52566 7.56439C1.71268 7.93843 1.93415 8.26325 2.18515 8.55362C2.04242 9.24263 1.96368 10.0005 1.96368 10.8274H2.94798C2.94798 10.2614 2.98243 9.75447 3.05133 9.29184C3.38108 9.49363 3.73543 9.64619 4.1193 9.73478C4.44412 9.81353 4.76894 9.84305 5.08884 9.84305C6.28477 9.84305 7.37243 9.37059 7.90395 8.97194C8.79967 8.2977 9.5379 7.6579 10.2663 6.07317C10.9553 4.56226 10.8175 1.79145 10.8076 1.67333C10.8022 1.57913 10.7696 1.48852 10.7137 1.41251C10.6578 1.3365 10.581 1.27836 10.4927 1.24516H10.4976ZM9.37549 5.66468C8.74061 7.04763 8.15003 7.55947 7.31829 8.18942C6.77692 8.59791 5.49733 9.05069 4.35062 8.78001C3.94705 8.6865 3.58778 8.5044 3.2728 8.24848C4.18328 5.0052 6.76216 4.9363 6.89012 4.9363V3.95199C6.80645 3.95199 5.17251 3.97168 3.79448 5.34478C3.24819 5.88615 2.83479 6.56532 2.52965 7.36261C2.48536 7.28878 2.44599 7.21496 2.40661 7.13622C1.59456 5.51212 1.84556 3.28759 3.65668 2.37219C4.22758 2.08674 4.82308 1.97354 5.37429 1.97354C6.0633 1.97354 6.69326 2.1458 7.14112 2.37219C8.3026 2.95293 9.22784 2.82497 9.83811 2.57889C9.82827 3.46476 9.74952 4.84279 9.37057 5.67453L9.37549 5.66468Z" fill="#35BC04"/>
</svg>
